<svg width="26" height="26" viewBox="0 0 26 26" fill="none" xmlns="http://www.w3.org/2000/svg">
<circle cx="13" cy="13" r="12.5" fill="#F3F5F8" stroke="#EAEDF1"/>
<path d="M7.5 13.8851C7.5 16.9328 9.9553 19.3942 13.0031 19.3942C16.0447 19.3942 18.5 16.9328 18.5 13.8851C18.5 13.4758 18.2129 13.1888 17.8098 13.1888C17.4128 13.1888 17.1441 13.4758 17.1441 13.8851C17.1441 16.1816 15.2996 18.0322 13.0031 18.0322C10.7066 18.0322 8.86202 16.1816 8.86202 13.8851C8.86202 11.558 10.676 9.72571 12.9664 9.72571C13.3207 9.72571 13.6444 9.75014 13.9253 9.80511L12.3862 11.332C12.264 11.4542 12.1968 11.6008 12.1968 11.7779C12.1968 12.1566 12.4839 12.4436 12.8565 12.4436C13.0458 12.4436 13.2046 12.3826 13.3207 12.2604L15.8248 9.73792C15.9653 9.59134 16.0325 9.42643 16.0325 9.23709C16.0325 9.05386 15.9592 8.87673 15.8248 8.74237L13.3207 6.20155C13.1985 6.06718 13.0458 6 12.8565 6C12.4839 6 12.1968 6.30539 12.1968 6.67796C12.1968 6.86119 12.264 7.00777 12.3801 7.13604L13.7421 8.47973C13.51 8.43087 13.2413 8.40644 12.9664 8.40644C9.92476 8.40644 7.5 10.8373 7.5 13.8851Z" fill="#1A1B27" fill-opacity="0.6"/>
</svg>
